<svg id="Capa_1" data-name="Capa 1" xmlns="http://www.w3.org/2000/svg" xmlns:xlink="http://www.w3.org/1999/xlink" viewBox="0 0 514.05 201.12"><defs><style>.cls-1{fill:#fff;}.cls-2{fill:#333;}.cls-3{fill:#f16c05;}.cls-4{mask:url(#mask);}.cls-5{filter:url(#luminosity-invert-noclip);}</style><filter id="luminosity-invert-noclip" x="34.02" y="34.02" width="102.05" height="102.05" filterUnits="userSpaceOnUse" color-interpolation-filters="sRGB"><feColorMatrix values="-1 0 0 0 1 0 -1 0 0 1 0 0 -1 0 1 0 0 0 1 0" result="invert"/><feFlood flood-color="#fff" result="bg"/><feBlend in="invert" in2="bg"/></filter><mask id="mask" x="34.02" y="34.02" width="102.05" height="102.05" maskUnits="userSpaceOnUse"><g class="cls-5"><path class="cls-1" d="M87.7,91.21c-3.73,0-4.31,0-6.36,0-2.31,0-2.59,0-6.36-.07-3,0-2.93,0-5.75,0s-3.27,0-4.77,0c-2.82,0-4.23,0-4.78.08-1.53.18-5.27.62-7.82,3.3a9,9,0,0,0-2.06,3.64c-1.78,5.61,2,10.89,2.76,12a28,28,0,0,0,4.58,4.69,34.34,34.34,0,0,0,6.42,4.66l.62.33a44.67,44.67,0,0,0,12.64,4.48,44.1,44.1,0,0,0,4.59.63,44.6,44.6,0,0,0,18.06-2.19,43,43,0,0,0,9.31-4.63,40.49,40.49,0,0,0,5.67-4.48,21.74,21.74,0,0,0,3.91-4.41,14.61,14.61,0,0,0,2.28-9.49,10.57,10.57,0,0,0-1.38-4,7.55,7.55,0,0,0-2.2-2.43,9.89,9.89,0,0,0-2.53-1.13,18.77,18.77,0,0,0-3.48-.87,32.45,32.45,0,0,0-5.17-.16c-1.25,0-2.5,0-3.75,0C97.13,91.22,97,91.13,87.7,91.21Z"/><path class="cls-1" d="M87.7,78.87c-3.73,0-4.31-.05-6.36,0-2.31,0-2.59,0-6.36.08-3,0-2.93,0-5.75,0S66,79,64.46,79c-2.82,0-4.23,0-4.78-.08-1.53-.18-5.27-.63-7.82-3.3A9,9,0,0,1,49.8,72c-1.78-5.61,2-10.9,2.76-12a28,28,0,0,1,4.58-4.69,34.34,34.34,0,0,1,6.42-4.66l.62-.33a44.67,44.67,0,0,1,12.64-4.48,44.1,44.1,0,0,1,4.59-.63,44.6,44.6,0,0,1,18.06,2.19A43,43,0,0,1,108.78,52a40.49,40.49,0,0,1,5.67,4.48,22,22,0,0,1,3.91,4.4,14.66,14.66,0,0,1,2.28,9.5,10.42,10.42,0,0,1-1.38,4,7.36,7.36,0,0,1-2.2,2.43,9.56,9.56,0,0,1-2.53,1.14,18.77,18.77,0,0,1-3.48.87,32.45,32.45,0,0,1-5.17.16c-1.25,0-2.5,0-3.75,0C97.13,78.86,97,79,87.7,78.87Z"/></g></mask></defs><title>logo</title><path class="cls-2" d="M63.55,179.94v1.68a14.35,14.35,0,0,1-4.27.6,6.83,6.83,0,0,1-5.3-2,7.55,7.55,0,0,1-1.81-5.35A8.93,8.93,0,0,1,53.91,169,6.56,6.56,0,0,1,59.25,167a12.72,12.72,0,0,1,4.3.69v1.66a11.64,11.64,0,0,0-4.14-.74,4.89,4.89,0,0,0-4.11,1.61,7.64,7.64,0,0,0-1.24,4.74q0,5.7,5.4,5.7A11.43,11.43,0,0,0,63.55,179.94Z"/><path class="cls-2" d="M87.27,176.54A6.06,6.06,0,0,1,86,180.79a5.36,5.36,0,0,1-4.12,1.43,5.39,5.39,0,0,1-4.13-1.43,6.06,6.06,0,0,1-1.32-4.25c0-3.79,1.81-5.68,5.45-5.68S87.27,172.75,87.27,176.54Zm-2.7,3.1a6.24,6.24,0,0,0,0-6.2,4.34,4.34,0,0,0-5.47,0,4.71,4.71,0,0,0-.83,3.1,4.79,4.79,0,0,0,.82,3.1,4.37,4.37,0,0,0,5.49,0Z"/><path class="cls-2" d="M109.71,182v-7.06a3.86,3.86,0,0,0-.25-1.53,1.53,1.53,0,0,0-.84-.78,4.66,4.66,0,0,0-1.69-.24,4.89,4.89,0,0,0-1.91.37,4.53,4.53,0,0,0-1.54,1V182h-1.89v-10.9h1.71l.11,1.24a6.48,6.48,0,0,1,4.23-1.47,4,4,0,0,1,3,1,4.18,4.18,0,0,1,.94,3V182Z"/><path class="cls-2" d="M127,171.09V168.4l1.89-.57v3.26h3l-.11,1.49h-2.9v6.28a1.9,1.9,0,0,0,.45,1.43,2.3,2.3,0,0,0,1.55.41,4.41,4.41,0,0,0,1.31-.23v1.42a5.39,5.39,0,0,1-1.95.33,3.25,3.25,0,0,1-2.42-.85A3.35,3.35,0,0,1,127,179v-6.37h-1.65v-1.49Z"/><path class="cls-2" d="M147.89,172.47a11.19,11.19,0,0,1,1.9-1,12.07,12.07,0,0,1,2.14-.64v1.47a14,14,0,0,0-2.17.65,9.19,9.19,0,0,0-1.83.89V182h-1.88v-10.9h1.7Z"/><path class="cls-2" d="M175.2,176.54a6,6,0,0,1-1.33,4.25,6.66,6.66,0,0,1-8.25,0,6.06,6.06,0,0,1-1.32-4.25q0-5.68,5.45-5.68T175.2,176.54Zm-2.7,3.1a4.8,4.8,0,0,0,.81-3.1,4.66,4.66,0,0,0-.83-3.1,4.34,4.34,0,0,0-5.47,0,4.72,4.72,0,0,0-.82,3.1,4.8,4.8,0,0,0,.81,3.1,4.38,4.38,0,0,0,5.5,0Z"/><path class="cls-2" d="M191.4,166.49v12.94a1.49,1.49,0,0,0,.22.94.92.92,0,0,0,.72.26,4,4,0,0,0,1-.14V182a4.3,4.3,0,0,1-1.5.23,2.39,2.39,0,0,1-1.75-.61,2.69,2.69,0,0,1-.61-2V166.49Z"/><path class="cls-2" d="M228.29,172.34a4.73,4.73,0,0,1,3.71-1.48,6.94,6.94,0,0,1,1.9.25,5.89,5.89,0,0,1,1.64.79v-5.41h1.88V182h-1.61l-.14-1.15a4.88,4.88,0,0,1-1.66,1,6.26,6.26,0,0,1-2.13.34,4.78,4.78,0,0,1-3.65-1.33A5.85,5.85,0,0,1,227,176.7,6.37,6.37,0,0,1,228.29,172.34Zm1.42,1.08a5.09,5.09,0,0,0-.86,3.28,4.67,4.67,0,0,0,.8,3.07,3.43,3.43,0,0,0,2.71.93,4.16,4.16,0,0,0,3.18-1.31v-5.93a4.56,4.56,0,0,0-3.13-1.08A3.31,3.31,0,0,0,229.71,173.42Z"/><path class="cls-2" d="M254.17,179.38a2.5,2.5,0,0,0,1.34,1,7.5,7.5,0,0,0,2.41.31,7.9,7.9,0,0,0,3.08-.58v1.48a8.53,8.53,0,0,1-3.44.62,6,6,0,0,1-4.37-1.41,5.74,5.74,0,0,1-1.45-4.32,6.11,6.11,0,0,1,1.29-4.16,5,5,0,0,1,3.93-1.47,4.7,4.7,0,0,1,3.53,1.24,4.51,4.51,0,0,1,1.2,3.27v2h-8.06A4.2,4.2,0,0,0,254.17,179.38Zm.2-6.12a4.28,4.28,0,0,0-.74,2.8H260v-.9a2.81,2.81,0,0,0-.73-2.07,3.17,3.17,0,0,0-2.29-.71A3.31,3.31,0,0,0,254.37,173.26Z"/><path class="cls-2" d="M305.48,180.74a4.56,4.56,0,0,1-3.65,1.48,6.19,6.19,0,0,1-3.63-1V187h-1.89V171.09h1.61l.14,1.15a5.06,5.06,0,0,1,1.66-1.05,6.27,6.27,0,0,1,2.13-.33,4.85,4.85,0,0,1,3.66,1.32,5.93,5.93,0,0,1,1.26,4.2A6.43,6.43,0,0,1,305.48,180.74ZM304,179.65a5.06,5.06,0,0,0,.86-3.27,4.65,4.65,0,0,0-.8-3.07,3.43,3.43,0,0,0-2.71-.93,4.11,4.11,0,0,0-3.17,1.31v5.93a4.52,4.52,0,0,0,3.12,1.08A3.28,3.28,0,0,0,304,179.65Z"/><path class="cls-2" d="M323,166.49v12.94a1.57,1.57,0,0,0,.21.94.92.92,0,0,0,.73.26,4,4,0,0,0,1-.14V182a4.24,4.24,0,0,1-1.49.23,2.41,2.41,0,0,1-1.76-.61,2.69,2.69,0,0,1-.61-2V166.49Z"/><path class="cls-2" d="M345.27,180.74a4.22,4.22,0,0,1-1.73,1.12,7.64,7.64,0,0,1-2.5.36,4.35,4.35,0,0,1-2.74-.85,2.91,2.91,0,0,1-1.1-2.44,3.16,3.16,0,0,1,1-2.5,4.72,4.72,0,0,1,3.17-.9h3.79v-.67a3.35,3.35,0,0,0-.25-1.44,1.52,1.52,0,0,0-.92-.74,6,6,0,0,0-1.93-.23,11.23,11.23,0,0,0-3.63.59v-1.56a11,11,0,0,1,3.88-.62,5.44,5.44,0,0,1,3.5.95,3.78,3.78,0,0,1,1.15,3.05V182h-1.59ZM341.46,177a2.79,2.79,0,0,0-1.83.47,1.81,1.81,0,0,0-.56,1.48,1.45,1.45,0,0,0,.62,1.34,3.35,3.35,0,0,0,1.83.41,4.58,4.58,0,0,0,3.68-1.59V177Z"/><path class="cls-2" d="M368.71,182.4a3.21,3.21,0,0,0-1.51-.25h-2.9a4.07,4.07,0,0,1-2.25-.52,1.72,1.72,0,0,1-.76-1.51,2.12,2.12,0,0,1,.44-1.29A2.34,2.34,0,0,1,363,178a3.27,3.27,0,0,1-1.79-3.22,3.59,3.59,0,0,1,1.17-3,5.83,5.83,0,0,1,3.64-.94,9,9,0,0,1,1.88.23h3.93l-.07,1.29h-2a3,3,0,0,1,1,2.39,3.65,3.65,0,0,1-1.07,2.83,4.61,4.61,0,0,1-3.23,1,9.85,9.85,0,0,1-1.33-.11,2.79,2.79,0,0,0-1.35.42,1.13,1.13,0,0,0-.6,1,.59.59,0,0,0,.32.58,2.49,2.49,0,0,0,1.13.18h3a4.07,4.07,0,0,1,2.5.66,2.25,2.25,0,0,1,.88,1.91,2.29,2.29,0,0,1-1.28,2.2,8.84,8.84,0,0,1-3.85.65,13.65,13.65,0,0,1-4.37-.57v-1.57a11,11,0,0,0,2,.46,15.54,15.54,0,0,0,2.24.16,16.07,16.07,0,0,0,1.95-.09,2.26,2.26,0,0,0,1-.35,1,1,0,0,0,.34-.82A.91.91,0,0,0,368.71,182.4Zm-.46-5.77a2.32,2.32,0,0,0,.63-1.86,2.49,2.49,0,0,0-.66-1.93,3.23,3.23,0,0,0-2.21-.6,3.42,3.42,0,0,0-2.23.59,2.41,2.41,0,0,0-.69,1.94,2.28,2.28,0,0,0,.66,1.84,5,5,0,0,0,4.5,0Z"/><path class="cls-2" d="M391.91,180.74a4.22,4.22,0,0,1-1.73,1.12,7.64,7.64,0,0,1-2.5.36,4.4,4.4,0,0,1-2.75-.85,2.93,2.93,0,0,1-1.09-2.44,3.16,3.16,0,0,1,1-2.5,4.72,4.72,0,0,1,3.17-.9h3.79v-.67a3.35,3.35,0,0,0-.25-1.44,1.52,1.52,0,0,0-.92-.74,6.06,6.06,0,0,0-1.93-.23,11.23,11.23,0,0,0-3.63.59v-1.56a11,11,0,0,1,3.88-.62,5.46,5.46,0,0,1,3.5.95,3.78,3.78,0,0,1,1.14,3.05V182h-1.58ZM388.1,177a2.79,2.79,0,0,0-1.83.47,1.81,1.81,0,0,0-.56,1.48,1.45,1.45,0,0,0,.62,1.34,3.35,3.35,0,0,0,1.83.41,4.58,4.58,0,0,0,3.68-1.59V177Z"/><path class="cls-2" d="M413.91,178.3a1.89,1.89,0,0,0-.73-.53,11.4,11.4,0,0,0-1.48-.54l-.62-.21a13.84,13.84,0,0,1-1.8-.72,2.68,2.68,0,0,1-1-.92,2.71,2.71,0,0,1-.39-1.53,2.61,2.61,0,0,1,1-2.23,5.5,5.5,0,0,1,3.25-.76,10.23,10.23,0,0,1,3.08.44V173a8.9,8.9,0,0,0-2.79-.48,5.13,5.13,0,0,0-2.08.3,1.08,1.08,0,0,0-.6,1.06,1.17,1.17,0,0,0,.26.82,2,2,0,0,0,.76.5c.33.13.91.32,1.73.58a12,12,0,0,1,2.11.83,2.61,2.61,0,0,1,1.46,2.55q0,3.1-4.33,3.11a14.23,14.23,0,0,1-2-.14,8.39,8.39,0,0,1-1.61-.37v-1.65a10.19,10.19,0,0,0,3.35.55,5,5,0,0,0,2.09-.31,1.19,1.19,0,0,0,.6-1.16A1.26,1.26,0,0,0,413.91,178.3Z"/><path class="cls-2" d="M172.1,146.16q-10.53-9.74-10.53-29.22,0-18.39,9.28-28.52t27.49-10.14q16.5,0,25.3,8.64t8.8,23.1v13.83H177.92q1.25,10.69,7.7,14.85t20.27,4.16a62.31,62.31,0,0,0,11.55-1.1,61.1,61.1,0,0,0,10.44-2.82v12.57q-9.88,4.4-25.45,4.4Q182.63,155.91,172.1,146.16Zm45.26-33.47v-5.18q0-8-4.4-12.18t-14.14-4.16q-11.64,0-16.27,5t-4.63,16.49Z"/><path class="cls-2" d="M276,153.78A32.87,32.87,0,0,1,264.81,147l-.94,7.38H249.1V48.43h17.12V84.72q9.58-6.43,23.42-6.44,16.5,0,25.37,9.35t8.88,28.84q0,19.78-8.88,29.61T290,155.91A41.59,41.59,0,0,1,276,153.78Zm25.69-17.2q4.95-6.45,4.95-20.11T301.5,97.06q-5.1-5.73-16.42-5.74-11.62,0-18.86,6.45v37.39q7.39,7.86,19.17,7.86Q296.72,143,301.66,136.58Z"/><path class="cls-2" d="M343,148.44q-7.16-7.45-7.15-21.6v-47H353v47q0,8.32,4.08,12.25T369.62,143a29,29,0,0,0,11.47-2.28,29.51,29.51,0,0,0,9.42-6.36V79.85h17v74.48H391.93l-.79-7.7a43.34,43.34,0,0,1-27.65,9.28Q350.13,155.91,343,148.44Z"/><path class="cls-2" d="M440.72,180.89a76.16,76.16,0,0,1-13.91-3V164.71A75.52,75.52,0,0,0,441,167.85a119.56,119.56,0,0,0,15.87,1.1q11.94,0,16.82-1.34c3.24-.89,4.87-2.75,4.87-5.58a4.77,4.77,0,0,0-2.6-4.63q-2.58-1.34-9.5-1.34H446.29q-9.9,0-15.08-3.69T426,141.76a14.42,14.42,0,0,1,2.83-8.72,16.66,16.66,0,0,1,8.33-5.73q-12.57-6.14-12.57-21.84,0-14.14,8.49-20.67t25.76-6.52a66.64,66.64,0,0,1,13.68,1.57h27.34L499.4,91H486.83q5.82,5.19,5.82,14.46,0,12.25-7.31,18.93t-21.76,6.68a66.37,66.37,0,0,1-9.27-.79,20.6,20.6,0,0,0-8.64,2.6c-2.42,1.41-3.62,3.22-3.62,5.42a3.52,3.52,0,0,0,1.89,3.37c1.25.69,3.35,1,6.28,1h20.9q11.16,0,17.21,4.79t6.05,13.91q0,10.83-9.2,15.71T457.61,182A128.25,128.25,0,0,1,440.72,180.89Zm32.37-64q4-3.37,4-11.87T473,92.82q-4.1-3.69-14.15-3.7-9.74,0-14.06,3.7T440.48,105q0,8.17,4.16,11.71t14.22,3.54Q469.08,120.24,473.09,116.86Z"/><circle class="cls-3" cx="34.02" cy="85.04" r="19.84"/><g class="cls-4"><circle class="cls-3" cx="85.04" cy="85.04" r="51.02"/></g><ellipse class="cls-3" cx="72.37" cy="106.35" rx="8.31" ry="8.32"/><ellipse class="cls-3" cx="100.72" cy="106.16" rx="8.31" ry="8.32"/><ellipse class="cls-3" cx="72.37" cy="63.83" rx="8.31" ry="8.32"/><ellipse class="cls-3" cx="100.72" cy="63.83" rx="8.31" ry="8.32"/><path class="cls-2" d="M155.9,85A70.82,70.82,0,0,1,85,155.9H51v-17H85A53.86,53.86,0,0,0,85,31.18H51v-17H85A70.82,70.82,0,0,1,155.9,85Z"/></svg>